<?xml version="1.0" standalone="no"?>
<!DOCTYPE svg PUBLIC "-//W3C//DTD SVG 20010904//EN"
 "http://www.w3.org/TR/2001/REC-SVG-20010904/DTD/svg10.dtd">
<svg version="1.0" xmlns="http://www.w3.org/2000/svg"
 width="1769.000000pt" height="1769.000000pt" viewBox="0 0 1769.000000 1769.000000"
 preserveAspectRatio="xMidYMid meet">
<metadata>
Created by potrace 1.11, written by Peter Selinger 2001-2013
</metadata>
<g transform="translate(0.000000,1769.000000) scale(0.100000,-0.100000)"
fill="#000000" stroke="none">
<path d="M9560 17564 c-744 -26 -1261 -59 -2425 -154 l-481 -39 -189 -72
c-856 -324 -1464 -610 -1659 -781 -95 -83 -166 -128 -546 -353 -508 -300 -748
-457 -1065 -695 -495 -372 -881 -761 -1225 -1235 -796 -1097 -1458 -2498
-1775 -3756 -92 -363 -167 -772 -186 -1010 -75 -938 426 -3630 898 -4828 85
-216 331 -704 521 -1033 654 -1130 1511 -1958 2701 -2608 344 -187 907 -437
1148 -509 446 -132 1484 -265 2543 -326 1142 -65 2130 -38 2810 76 1172 197
2471 727 3536 1441 557 373 1093 840 1440 1255 483 576 1101 1560 1573 2503
251 503 375 818 392 1000 5 52 23 230 39 395 111 1118 99 1817 -46 2690 -121
732 -413 1728 -727 2485 -218 527 -384 840 -820 1547 -130 211 -277 456 -328
545 -150 266 -165 292 -230 379 -577 783 -2521 2327 -3467 2755 -383 173 -862
275 -1472 314 -171 11 -794 20 -960 14z m-464 -914 c297 -11 527 -30 792 -66
1689 -227 3253 -1000 4463 -2204 1850 -1842 2658 -4490 2150 -7048 -70 -349
-139 -606 -259 -967 l-77 -230 -2 110 c-4 179 -22 396 -53 630 -81 605 -68
855 90 1825 111 680 132 868 132 1200 -1 118 -6 265 -12 325 -33 332 -127 670
-255 912 -29 55 -114 190 -188 300 -73 109 -151 233 -171 275 -54 113 -82 238
-105 474 -24 242 -35 319 -62 429 -28 113 -114 281 -208 405 -102 135 -322
350 -531 520 -528 429 -584 485 -828 835 -304 436 -494 630 -852 871 -348 235
-630 374 -1016 502 -227 76 -1104 328 -1313 378 -195 46 -455 99 -931 189
-162 31 -421 85 -575 120 -429 98 -611 123 -805 110 -231 -15 -360 -48 -740
-192 -370 -141 -483 -179 -567 -192 -40 -6 -195 -11 -345 -11 -150 0 -304 -5
-343 -10 -210 -30 -402 -117 -610 -275 -293 -224 -316 -235 -640 -324 -269
-74 -313 -89 -415 -141 -93 -49 -178 -133 -227 -225 -17 -33 -48 -118 -69
-188 -21 -74 -50 -147 -66 -173 -28 -41 -33 -44 -74 -44 -37 0 -58 -10 -141
-66 -275 -186 -436 -354 -748 -784 -345 -475 -457 -599 -830 -925 -306 -266
-437 -421 -555 -654 -124 -246 -262 -734 -364 -1291 -101 -548 -152 -988 -246
-2105 -63 -750 -71 -837 -120 -1280 -51 -471 -60 -571 -61 -745 l-1 -145 -39
150 c-87 334 -169 799 -203 1150 -54 546 -47 1184 19 1725 114 933 411 1877
852 2705 505 949 1192 1777 2035 2451 1312 1050 2985 1658 4673 1697 61 2 126
4 145 5 19 1 153 -3 296 -8z m584 -895 c118 -25 289 -55 380 -66 537 -65 642
-85 806 -148 152 -59 276 -143 459 -311 241 -221 479 -370 591 -370 12 0 62
12 110 26 155 44 213 55 357 63 424 25 725 -55 927 -245 166 -157 235 -301
429 -889 228 -694 267 -760 762 -1260 174 -176 343 -357 377 -402 220 -299
371 -676 441 -1103 64 -393 54 -601 -54 -1175 -71 -372 -84 -461 -91 -620 -7
-141 7 -308 33 -385 8 -25 44 -108 80 -185 180 -386 199 -439 210 -581 7 -96
-7 -165 -49 -245 -42 -81 -102 -144 -261 -277 -78 -65 -163 -142 -189 -171
-73 -81 -116 -213 -125 -382 -6 -121 3 -198 52 -426 72 -336 69 -488 -11 -693
-42 -106 -94 -183 -290 -430 -198 -251 -273 -351 -357 -483 l-52 -82 -5 -160
c-6 -155 -7 -162 -39 -233 -58 -125 -119 -167 -355 -246 -152 -51 -145 -47
-357 -221 -180 -147 -247 -216 -290 -300 -83 -160 -101 -279 -61 -410 32 -108
36 -154 18 -224 -19 -73 -51 -131 -108 -196 -131 -148 -247 -190 -759 -276
-418 -69 -430 -73 -690 -246 -91 -61 -202 -131 -246 -157 -201 -116 -444 -162
-638 -121 -107 23 -198 72 -324 175 -63 52 -139 108 -169 126 -175 106 -495
148 -947 125 -137 -7 -262 -15 -276 -17 -26 -6 -26 -8 -32 -112 -18 -307 -126
-462 -322 -462 -83 0 -151 17 -243 60 -125 58 -212 119 -503 351 -350 279
-359 283 -594 283 -184 1 -217 -6 -580 -117 -534 -164 -788 -176 -1118 -53
-220 83 -323 171 -382 328 -44 117 -69 158 -145 248 -39 47 -99 134 -132 194
-34 60 -71 120 -84 135 l-22 26 -68 -22 c-155 -50 -254 -48 -343 4 -88 52
-258 236 -431 468 -176 236 -267 338 -371 416 -80 59 -198 119 -297 150 -41
13 -85 34 -98 48 -45 45 -75 194 -94 462 -35 513 -49 564 -269 977 -160 300
-225 481 -252 702 -13 105 -8 275 16 520 41 428 10 559 -232 981 -127 221
-163 292 -203 404 -69 198 -98 388 -107 720 -15 577 48 726 459 1074 54 45
115 103 137 128 85 96 106 215 96 548 -10 347 13 508 99 691 58 123 125 219
275 396 272 323 248 285 332 513 133 362 262 526 508 650 193 96 521 175 831
200 47 4 103 15 125 24 64 28 217 218 253 314 11 28 37 129 57 222 47 215 67
281 117 380 66 132 163 245 293 342 127 95 214 126 429 153 318 41 326 45 641
261 241 166 285 188 387 199 104 10 228 -3 325 -35 40 -14 142 -59 225 -101
84 -42 178 -85 208 -96 116 -40 418 -63 487 -37 43 16 69 45 149 166 110 167
211 260 464 430 240 161 332 172 720 88z m-7542 -10835 c150 -225 311 -510
286 -510 -16 0 -327 501 -418 675 -63 118 -34 83 132 -165z m13521 123 c-188
-345 -505 -811 -774 -1138 -286 -348 -685 -755 -976 -995 l-54 -45 51 60 c75
89 193 246 351 466 304 424 562 739 1107 1354 127 143 253 286 280 318 28 31
52 57 54 57 2 0 -15 -35 -39 -77z m-11539 -2228 c302 -73 352 -88 459 -141
147 -72 204 -117 451 -359 118 -115 249 -235 290 -266 198 -148 375 -220 655
-269 292 -51 510 -107 950 -247 775 -245 975 -300 1295 -352 348 -57 736 -55
1445 9 493 45 598 70 815 196 455 263 618 321 1300 464 489 103 777 181 988
269 39 16 72 28 72 26 0 -8 -292 -170 -470 -259 -944 -478 -1917 -745 -3010
-828 -213 -16 -818 -16 -1030 0 -1091 83 -2042 342 -2984 813 -560 281 -1028
589 -1554 1025 -23 19 -13 17 79 -13 57 -18 169 -49 249 -68z"/>
<path d="M10320 14674 c-399 -72 -727 -310 -880 -637 -117 -249 -153 -604 -85
-831 98 -328 357 -658 635 -809 81 -44 413 -169 540 -204 68 -18 130 -27 215
-30 145 -6 194 4 364 77 427 184 666 410 744 703 19 74 21 107 21 347 0 261 0
266 -28 355 -56 182 -150 351 -303 540 -136 169 -249 255 -484 370 -213 103
-300 126 -499 131 -110 2 -180 -1 -240 -12z"/>
<path d="M7308 14559 c-135 -11 -278 -37 -367 -66 -300 -97 -591 -377 -745
-717 -96 -210 -126 -431 -91 -671 38 -267 129 -522 254 -710 46 -70 176 -215
192 -215 5 0 31 -16 58 -35 99 -71 218 -100 482 -116 162 -9 221 -8 475 10
226 17 308 26 379 45 251 68 424 185 546 370 122 185 206 380 251 584 18 78
22 130 22 267 1 152 -2 181 -26 277 -89 351 -283 657 -510 805 -146 96 -357
156 -609 173 -159 11 -172 11 -311 -1z"/>
<path d="M11820 12154 c-311 -44 -586 -166 -738 -329 -222 -236 -345 -560
-368 -968 -17 -295 117 -622 355 -871 134 -139 248 -214 409 -270 444 -154
717 -155 1045 -4 48 23 89 39 90 37 2 -2 24 -31 49 -64 55 -73 176 -189 241
-234 146 -99 297 -148 602 -193 136 -20 612 -17 735 5 126 22 261 61 335 97
164 80 320 292 408 557 48 144 66 232 77 379 25 324 -77 623 -292 856 -79 86
-238 218 -326 271 -150 91 -359 163 -621 213 -121 24 -152 26 -281 21 -105 -4
-167 -11 -225 -27 -127 -35 -117 -36 -144 12 -75 133 -196 266 -314 345 -108
73 -254 122 -472 159 -131 22 -435 27 -565 8z"/>
<path d="M4540 11613 c-154 -18 -441 -103 -585 -175 -134 -67 -198 -115 -336
-251 -182 -179 -261 -314 -327 -557 -23 -86 -26 -113 -26 -280 -1 -154 3 -204
22 -298 63 -312 204 -571 384 -707 132 -99 436 -221 663 -265 340 -66 692 -36
920 78 205 102 418 334 536 586 56 120 135 365 148 459 39 280 -36 577 -213
846 -82 123 -179 224 -283 292 -100 66 -355 190 -458 224 -136 44 -310 63
-445 48z"/>
<path d="M8215 11534 c-344 -36 -738 -158 -934 -289 -303 -201 -481 -618 -482
-1130 0 -225 30 -356 124 -540 44 -87 65 -114 156 -205 121 -121 177 -154 376
-221 185 -62 328 -91 486 -96 213 -8 337 22 588 143 172 82 316 178 412 274
150 149 303 403 348 575 45 174 51 371 16 540 -42 205 -158 464 -281 629 -117
154 -289 280 -419 306 -55 11 -327 21 -390 14z"/>
<path d="M11000 9563 c-103 -17 -238 -77 -445 -197 -173 -101 -229 -142 -311
-228 -226 -236 -356 -600 -310 -864 8 -49 27 -122 41 -163 14 -41 24 -75 22
-77 -1 -1 -29 -15 -63 -32 -227 -114 -475 -346 -579 -543 -42 -79 -179 -437
-205 -535 -29 -108 -40 -226 -29 -321 11 -103 51 -214 144 -401 177 -355 390
-549 670 -607 62 -13 135 -17 320 -17 211 0 249 2 317 20 296 79 649 327 818
572 85 125 193 352 226 475 62 237 38 509 -68 768 -22 54 -38 99 -37 101 2 1
22 13 44 26 92 55 258 186 320 252 79 85 163 218 221 348 95 210 122 383 89
561 -63 349 -120 469 -282 602 -204 166 -666 299 -903 260z"/>
<path d="M7031 8649 c-216 -25 -405 -110 -554 -249 -162 -152 -243 -331 -328
-725 -21 -98 -16 -344 9 -437 66 -242 232 -552 378 -708 88 -93 276 -228 409
-295 155 -78 286 -107 490 -108 129 -1 165 3 260 25 363 85 667 273 825 509
82 123 95 184 95 434 -1 105 -7 226 -14 270 -48 307 -163 646 -272 809 -83
123 -222 242 -369 316 -252 127 -638 193 -929 159z"/>
<path d="M4620 8310 c-423 -55 -628 -120 -751 -237 -116 -111 -186 -245 -231
-444 -20 -90 -23 -131 -23 -299 0 -174 3 -204 23 -275 44 -152 123 -295 220
-397 l34 -36 -28 -15 c-47 -25 -159 -127 -215 -197 -94 -116 -135 -234 -195
-545 -46 -245 -24 -428 82 -689 119 -291 248 -459 494 -645 245 -185 441 -252
734 -252 608 1 1041 358 1176 969 79 357 -80 831 -380 1133 l-86 87 30 18
c174 101 319 344 372 621 25 133 23 317 -5 423 -51 193 -162 384 -317 549
-104 111 -172 157 -292 201 -183 67 -311 73 -642 30z"/>
<path d="M13230 7813 c-101 -16 -292 -61 -380 -90 -223 -74 -362 -159 -535
-329 -193 -189 -285 -355 -341 -614 -22 -102 -25 -345 -5 -460 51 -301 160
-538 321 -702 99 -101 142 -123 314 -168 158 -40 284 -54 496 -53 296 0 574
48 746 128 271 125 488 415 614 823 61 199 85 425 60 579 -36 226 -151 440
-297 555 -184 144 -531 301 -726 327 -75 11 -214 13 -267 4z"/>
<path d="M7470 5644 c-299 -35 -548 -112 -753 -231 -111 -65 -283 -233 -325
-319 -37 -73 -66 -185 -82 -314 -28 -216 -4 -815 39 -980 42 -163 100 -278
207 -412 95 -118 361 -275 594 -352 215 -71 462 -88 655 -47 416 88 778 334
904 613 134 294 163 761 71 1131 -100 402 -525 789 -973 886 -95 21 -266 33
-337 25z"/>
<path d="M10310 5155 c-143 -27 -275 -82 -377 -159 -65 -49 -189 -183 -268
-291 -195 -263 -299 -585 -280 -864 15 -217 64 -415 150 -598 53 -113 89 -165
174 -255 82 -87 153 -136 295 -203 264 -125 542 -181 856 -173 197 6 279 26
456 113 394 193 681 577 735 982 19 144 6 453 -25 592 -41 183 -96 325 -160
416 -11 16 -28 42 -36 56 -25 43 -145 146 -207 177 -32 16 -98 44 -148 62
-318 112 -934 189 -1165 145z"/>
</g>
</svg>
